<?xml version="1.0" encoding="utf-8"?>
<!-- Generator: Adobe Illustrator 24.3.0, SVG Export Plug-In . SVG Version: 6.00 Build 0)  -->
<svg version="1.1" id="Layer_1" xmlns="http://www.w3.org/2000/svg" xmlns:xlink="http://www.w3.org/1999/xlink" x="0px" y="0px"
	 viewBox="0 0 595.28 841.89" style="enable-background:new 0 0 595.28 841.89;" xml:space="preserve">
<style type="text/css">
	.st0{fill:#FFFFFF;}
	.st1{fill:none;stroke:#FFFFFF;stroke-width:0.5;stroke-linejoin:round;stroke-miterlimit:10;}
	.st2{fill:none;}
</style>
<path class="st0" d="M244.18,420.95l-0.07-8.05c0,0-17.76-31.17-38.97,0.37c0,0,17.94,31.63,33.33,7.21l-2.82-4.09
	c0,0-10.93,19.21-24.31-2.94C211.33,413.46,224.1,388.7,244.18,420.95"/>
<path d="M204.88,413.39l0.1,7.98c0,0,18.01,31.45,39.59-0.37c0,0-17.64-31.6-33.37-7.58l2.73,4.01c0,0,11.19-19.07,24.79,3.08
	C238.72,420.51,225.88,445.3,204.88,413.39"/>
<path class="st1" d="M297.02,478.15l0.1,7.98c0,0,18.01,31.45,39.59-0.37c0,0-17.64-31.6-33.37-7.58l2.73,4.01
	c0,0,11.19-19.07,24.79,3.08C330.86,485.27,318.03,510.07,297.02,478.15z"/>
<g>
	<path class="st0" d="M342.38,411.44c0.66,0,1,0.39,1,1v16.82c0,0.62-0.35,1-1,1h-1.78c-0.65,0-1-0.39-1-1v-16.82c0-0.62,0.35-1,1-1
		H342.38z"/>
	<path class="st0" d="M277.14,411.35c0.69,0,1.08,0.43,0.89,1.12l-3.86,16.82c-0.12,0.58-0.5,0.89-1.08,0.89h-2.78
		c-0.62,0-1-0.31-1.12-0.89l-3.28-14.43l-3.36,14.43c-0.11,0.58-0.5,0.89-1.12,0.89h-2.78c-0.58,0-0.96-0.31-1.08-0.89l-3.82-16.82
		c-0.19-0.69,0.19-1.12,0.89-1.12h1.93c0.62,0,1,0.31,1.12,0.93l2.59,14.35l3.13-14.39c0.11-0.58,0.46-0.89,1.08-0.89h2.82
		c0.62,0,0.96,0.31,1.08,0.89l3.08,14.39l2.62-14.35c0.12-0.62,0.5-0.93,1.12-0.93H277.14z"/>
	<path class="st0" d="M284.13,411.35c0.66,0,1,0.39,1,1v16.82c0,0.62-0.35,1-1,1h-1.77c-0.66,0-1.01-0.39-1.01-1v-16.82
		c0-0.62,0.35-1,1.01-1H284.13z"/>
	<path class="st0" d="M298.76,411.31c0.62,0.15,0.93,0.5,0.93,1.12v1.24c-0.04,0.73-0.47,1.08-1.16,0.89
		c-1-0.23-2.08-0.39-2.89-0.39c-2.08,0-2.93,0.73-2.93,1.93v0.27c0,0.85,0.38,1.23,1.46,1.74l3.59,1.66
		c2.31,1.08,3.32,2.62,3.32,4.63v0.81c0,3.55-1.93,5.44-6.52,5.44c-1.27,0-2.74-0.23-4.36-0.7c-0.61-0.15-0.89-0.54-0.85-1.12
		l0.04-1.43c0.04-0.77,0.5-1.08,1.2-0.85c1.35,0.42,2.78,0.69,3.9,0.69c2.16,0,2.85-0.58,2.85-1.93v-0.31
		c0-1.04-0.38-1.62-1.39-2.08l-3.59-1.54c-2.35-1.08-3.43-2.55-3.43-4.51v-0.54c0-3.59,2.04-5.44,6.56-5.44
		C296.52,410.89,297.56,411.04,298.76,411.31"/>
	<path class="st0" d="M308.11,417.33v1.74h5.83v-1.62c0-2.24-1.16-3.32-2.93-3.32C309.27,414.13,308.11,415.25,308.11,417.33
		 M317.75,417.87v2.51c0,1.12-0.39,1.62-1.58,1.62h-8.07v1.93c0,2.35,1.08,3.32,3.67,3.32c1.2,0,2.7-0.19,3.97-0.46
		c0.7-0.15,1.08,0.19,1.12,0.89l0.08,1.35c0.04,0.62-0.35,0.96-0.96,1.12c-1.55,0.35-3.28,0.5-4.56,0.5c-5.13,0-7.1-2.24-7.1-7.06
		v-5.71c0-4.48,2.12-6.98,6.67-6.98C315.4,410.89,317.75,413.32,317.75,417.87"/>
	<path class="st0" d="M335.66,411.44c0.77,0,1.08,0.46,0.85,1.16l-5.13,16.82c-0.19,0.58-0.54,0.85-1.16,0.85h-2.97
		c-0.61,0-1-0.27-1.16-0.85L321,412.6c-0.27-0.69,0.08-1.16,0.85-1.16h1.89c0.62,0,1,0.31,1.16,0.89l3.86,15.13l3.86-15.13
		c0.15-0.58,0.54-0.89,1.12-0.89H335.66z"/>
	<path class="st0" d="M357.01,411.41c0.62,0.15,0.93,0.5,0.93,1.12v1.23c-0.04,0.73-0.46,1.08-1.16,0.89
		c-1.01-0.23-2.09-0.38-2.89-0.38c-2.09,0-2.93,0.73-2.93,1.93v0.27c0,0.85,0.39,1.24,1.47,1.73l3.59,1.66
		c2.32,1.08,3.32,2.62,3.32,4.63v0.81c0,3.55-1.93,5.44-6.52,5.44c-1.28,0-2.74-0.23-4.36-0.7c-0.62-0.16-0.89-0.54-0.85-1.12
		l0.04-1.43c0.04-0.77,0.5-1.08,1.2-0.85c1.35,0.42,2.78,0.69,3.9,0.69c2.16,0,2.86-0.58,2.86-1.93v-0.31
		c0-1.04-0.39-1.62-1.39-2.09l-3.59-1.54c-2.36-1.08-3.43-2.54-3.43-4.51v-0.54c0-3.59,2.05-5.44,6.56-5.44
		C354.78,410.98,355.82,411.14,357.01,411.41"/>
	<path class="st0" d="M365.89,411.44c0.66,0,1.01,0.39,1.01,1v16.82c0,0.62-0.35,1-1.01,1h-1.77c-0.65,0-1-0.39-1-1v-16.82
		c0-0.62,0.35-1,1-1H365.89z"/>
	<path class="st0" d="M375.16,417.81v6.1c0,2.35,1.16,3.59,3.09,3.59c1.97,0,3.13-1.24,3.13-3.59v-6.14c0-2.35-1.16-3.55-3.13-3.55
		C376.32,414.22,375.16,415.46,375.16,417.81 M385.15,418.04v5.63c0,4.44-2.16,7.06-6.91,7.06c-4.71,0-6.87-2.62-6.87-7.06v-5.63
		c0-4.44,2.16-7.06,6.87-7.06C382.99,410.98,385.15,413.61,385.15,418.04"/>
	<path class="st0" d="M403.18,417.46v11.81c0,0.62-0.35,1-1.01,1h-1.78c-0.65,0-1.04-0.39-1.04-1v-11.35c0-2.47-0.85-3.39-2.16-3.39
		c-1.31,0-2.74,1.04-3.78,2.78v11.96c0,0.62-0.35,1-1.01,1h-1.77c-0.65,0-1-0.39-1-1v-16.82c0-0.62,0.35-1,1-1h1.51
		c0.66,0,1.04,0.39,1.04,1v1.74c1.35-2.08,3.05-3.2,5.01-3.2C401.37,410.98,403.18,413.22,403.18,417.46"/>
</g>
<rect x="242.13" y="463.93" class="st2" width="149.48" height="74.27"/>
</svg>
