<?xml version="1.0" encoding="utf-8"?>
<!-- Generator: Adobe Illustrator 24.3.0, SVG Export Plug-In . SVG Version: 6.00 Build 0)  -->
<svg version="1.1" id="Layer_1" xmlns="http://www.w3.org/2000/svg" xmlns:xlink="http://www.w3.org/1999/xlink" x="0px" y="0px"
	 viewBox="0 0 595.28 841.89" style="enable-background:new 0 0 595.28 841.89;" xml:space="preserve">
<style type="text/css">
	.st0{fill:#FFFFFF;stroke:#000000;stroke-width:0.5;stroke-linecap:round;stroke-linejoin:round;stroke-miterlimit:10;}
	.st1{fill:none;}
</style>
<path class="st0" d="M317.3,414.13l-0.07-8.05c0,0-17.76-31.17-38.98,0.37c0,0,17.94,31.63,33.33,7.21l-2.82-4.09
	c0,0-10.93,19.21-24.31-2.94C284.45,406.64,297.22,381.88,317.3,414.13z"/>
<path d="M278.01,406.56l0.1,7.98c0,0,18.01,31.45,39.58-0.37c0,0-17.64-31.6-33.36-7.58l2.73,4.01c0,0,11.19-19.07,24.79,3.08
	C311.84,413.68,299.01,438.48,278.01,406.56"/>
<path d="M311.79,447.31c0.66,0,1.01,0.39,1.01,1v16.82c0,0.62-0.35,1-1.01,1h-1.77c-0.65,0-1-0.39-1-1v-16.82c0-0.62,0.35-1,1-1
	H311.79z"/>
<path d="M246.54,447.22c0.69,0,1.08,0.43,0.89,1.12l-3.86,16.82c-0.12,0.58-0.5,0.89-1.08,0.89h-2.78c-0.62,0-1-0.31-1.12-0.89
	l-3.28-14.43l-3.36,14.43c-0.11,0.58-0.5,0.89-1.12,0.89h-2.78c-0.58,0-0.96-0.31-1.08-0.89l-3.82-16.82
	c-0.19-0.69,0.19-1.12,0.89-1.12h1.93c0.62,0,1,0.31,1.12,0.93l2.59,14.35l3.13-14.39c0.11-0.58,0.46-0.89,1.08-0.89h2.82
	c0.62,0,0.96,0.31,1.08,0.89l3.09,14.39l2.62-14.35c0.12-0.62,0.5-0.93,1.12-0.93H246.54z"/>
<path d="M253.54,447.22c0.66,0,1,0.39,1,1v16.82c0,0.62-0.35,1-1,1h-1.77c-0.66,0-1.01-0.39-1.01-1v-16.82c0-0.62,0.35-1,1.01-1
	H253.54z"/>
<path d="M268.17,447.18c0.62,0.15,0.93,0.5,0.93,1.12v1.24c-0.04,0.73-0.46,1.08-1.16,0.89c-1-0.23-2.08-0.39-2.89-0.39
	c-2.08,0-2.93,0.73-2.93,1.93v0.27c0,0.85,0.38,1.23,1.46,1.74l3.59,1.66c2.31,1.08,3.32,2.62,3.32,4.63v0.81
	c0,3.55-1.93,5.44-6.52,5.44c-1.27,0-2.74-0.23-4.36-0.69c-0.61-0.15-0.89-0.54-0.85-1.12l0.04-1.43c0.04-0.77,0.5-1.08,1.2-0.85
	c1.35,0.42,2.78,0.69,3.9,0.69c2.16,0,2.85-0.58,2.85-1.93v-0.31c0-1.04-0.38-1.62-1.39-2.08l-3.59-1.54
	c-2.35-1.08-3.43-2.55-3.43-4.52v-0.54c0-3.59,2.05-5.44,6.56-5.44C265.93,446.76,266.97,446.91,268.17,447.18"/>
<path d="M277.51,453.2v1.74h5.83v-1.62c0-2.24-1.16-3.32-2.93-3.32C278.67,450,277.51,451.12,277.51,453.2 M287.16,453.74v2.51
	c0,1.12-0.39,1.62-1.58,1.62h-8.07v1.93c0,2.35,1.08,3.32,3.67,3.32c1.2,0,2.7-0.19,3.97-0.46c0.69-0.15,1.08,0.19,1.12,0.89
	l0.08,1.35c0.04,0.62-0.35,0.96-0.96,1.12c-1.55,0.35-3.28,0.5-4.56,0.5c-5.13,0-7.1-2.24-7.1-7.06v-5.71
	c0-4.48,2.12-6.98,6.67-6.98C284.8,446.76,287.16,449.19,287.16,453.74"/>
<path d="M305.07,447.31c0.77,0,1.08,0.46,0.85,1.16l-5.13,16.82c-0.19,0.58-0.54,0.85-1.16,0.85h-2.97c-0.62,0-1-0.27-1.16-0.85
	l-5.09-16.82c-0.27-0.69,0.08-1.16,0.85-1.16h1.89c0.62,0,1,0.31,1.16,0.89l3.86,15.13l3.86-15.13c0.15-0.58,0.54-0.89,1.12-0.89
	H305.07z"/>
<path d="M326.42,447.28c0.62,0.15,0.93,0.5,0.93,1.12v1.24c-0.04,0.73-0.46,1.08-1.16,0.89c-1.01-0.23-2.09-0.38-2.89-0.38
	c-2.09,0-2.93,0.73-2.93,1.93v0.27c0,0.85,0.39,1.23,1.47,1.73l3.59,1.66c2.32,1.08,3.32,2.62,3.32,4.63v0.81
	c0,3.55-1.93,5.44-6.52,5.44c-1.27,0-2.74-0.23-4.36-0.7c-0.62-0.16-0.89-0.54-0.85-1.12l0.04-1.43c0.04-0.77,0.5-1.08,1.2-0.85
	c1.35,0.42,2.78,0.69,3.9,0.69c2.16,0,2.86-0.58,2.86-1.93v-0.31c0-1.04-0.39-1.62-1.39-2.09l-3.59-1.54
	c-2.36-1.08-3.43-2.54-3.43-4.51v-0.54c0-3.59,2.05-5.44,6.56-5.44C324.18,446.85,325.23,447.01,326.42,447.28"/>
<path d="M335.3,447.31c0.66,0,1,0.39,1,1v16.82c0,0.62-0.35,1-1,1h-1.78c-0.65,0-1-0.39-1-1v-16.82c0-0.62,0.35-1,1-1H335.3z"/>
<path d="M344.57,453.68v6.1c0,2.35,1.16,3.59,3.09,3.59c1.97,0,3.13-1.23,3.13-3.59v-6.14c0-2.35-1.16-3.55-3.13-3.55
	C345.73,450.09,344.57,451.33,344.57,453.68 M354.56,453.91v5.63c0,4.44-2.16,7.06-6.91,7.06c-4.71,0-6.87-2.62-6.87-7.06v-5.63
	c0-4.44,2.16-7.06,6.87-7.06C352.4,446.85,354.56,449.48,354.56,453.91"/>
<path d="M372.59,453.33v11.81c0,0.62-0.35,1-1.01,1h-1.78c-0.65,0-1.04-0.39-1.04-1V453.8c0-2.47-0.85-3.39-2.16-3.39
	c-1.31,0-2.74,1.04-3.78,2.78v11.96c0,0.62-0.35,1-1.01,1h-1.77c-0.65,0-1-0.39-1-1v-16.82c0-0.62,0.35-1,1-1h1.51
	c0.66,0,1.04,0.39,1.04,1v1.74c1.35-2.08,3.05-3.2,5.01-3.2C370.78,446.85,372.59,449.09,372.59,453.33"/>
<rect x="223.11" y="392.09" class="st1" width="149.48" height="74.52"/>
</svg>
