<?xml version="1.0" encoding="utf-8"?>
<!-- Generator: Adobe Illustrator 24.3.0, SVG Export Plug-In . SVG Version: 6.00 Build 0)  -->
<svg version="1.1" id="Layer_1" xmlns="http://www.w3.org/2000/svg" xmlns:xlink="http://www.w3.org/1999/xlink" x="0px" y="0px"
	 viewBox="0 0 595.28 841.89" style="enable-background:new 0 0 595.28 841.89;" xml:space="preserve">
<style type="text/css">
	.st0{clip-path:url(#SVGID_2_);fill:#FFFFFF;}
	.st1{clip-path:url(#SVGID_2_);}
	.st2{clip-path:url(#SVGID_2_);fill:none;stroke:#FFFFFF;stroke-width:0.5;stroke-linejoin:round;stroke-miterlimit:10;}
</style>
<g>
	<defs>
		<rect id="SVGID_1_" x="228.09" y="345.09" width="149.48" height="74.27"/>
	</defs>
	<clipPath id="SVGID_2_">
		<use xlink:href="#SVGID_1_"  style="overflow:visible;"/>
	</clipPath>
	<path class="st0" d="M322.28,366.88l-0.07-8.05c0,0-17.76-31.17-38.97,0.37c0,0,17.94,31.63,33.33,7.21l-2.82-4.09
		c0,0-10.93,19.21-24.31-2.94C289.43,359.39,302.2,334.62,322.28,366.88"/>
	<path class="st1" d="M282.98,359.31l0.1,7.98c0,0,18.01,31.45,39.58-0.37c0,0-17.64-31.6-33.36-7.58l2.73,4.01
		c0,0,11.19-19.07,24.79,3.08C316.82,366.43,303.99,391.22,282.98,359.31"/>
	<path class="st2" d="M282.98,359.31l0.1,7.98c0,0,18.01,31.45,39.58-0.37c0,0-17.64-31.6-33.36-7.58l2.73,4.01
		c0,0,11.19-19.07,24.79,3.08C316.82,366.43,303.99,391.22,282.98,359.31z"/>
	<path class="st0" d="M316.77,400.06c0.66,0,1.01,0.39,1.01,1v16.82c0,0.62-0.35,1-1.01,1h-1.77c-0.65,0-1-0.39-1-1v-16.82
		c0-0.62,0.35-1,1-1H316.77z"/>
	<path class="st0" d="M251.52,399.97c0.69,0,1.08,0.43,0.89,1.12l-3.86,16.82c-0.12,0.58-0.5,0.89-1.08,0.89h-2.78
		c-0.62,0-1-0.31-1.12-0.89l-3.28-14.43l-3.36,14.43c-0.11,0.58-0.5,0.89-1.12,0.89h-2.78c-0.58,0-0.96-0.31-1.08-0.89l-3.82-16.82
		c-0.19-0.69,0.19-1.12,0.89-1.12h1.93c0.62,0,1,0.31,1.12,0.93l2.59,14.35l3.13-14.39c0.11-0.58,0.46-0.89,1.08-0.89h2.82
		c0.62,0,0.96,0.31,1.08,0.89l3.09,14.39l2.62-14.35c0.12-0.62,0.5-0.93,1.12-0.93H251.52z"/>
	<path class="st0" d="M258.52,399.97c0.66,0,1,0.39,1,1v16.82c0,0.62-0.35,1-1,1h-1.77c-0.66,0-1.01-0.39-1.01-1v-16.82
		c0-0.62,0.35-1,1.01-1H258.52z"/>
	<path class="st0" d="M273.14,399.93c0.62,0.15,0.93,0.5,0.93,1.12v1.23c-0.04,0.73-0.46,1.08-1.16,0.89
		c-1-0.23-2.08-0.39-2.89-0.39c-2.08,0-2.93,0.73-2.93,1.93v0.27c0,0.85,0.38,1.24,1.46,1.74l3.59,1.66
		c2.31,1.08,3.32,2.62,3.32,4.63v0.81c0,3.55-1.93,5.44-6.52,5.44c-1.27,0-2.74-0.23-4.36-0.7c-0.62-0.15-0.89-0.54-0.85-1.12
		l0.04-1.43c0.04-0.77,0.5-1.08,1.2-0.85c1.35,0.42,2.78,0.69,3.9,0.69c2.16,0,2.85-0.58,2.85-1.93v-0.31
		c0-1.04-0.38-1.62-1.39-2.08l-3.59-1.54c-2.35-1.08-3.43-2.55-3.43-4.52v-0.54c0-3.59,2.04-5.44,6.56-5.44
		C270.91,399.5,271.95,399.66,273.14,399.93"/>
	<path class="st0" d="M282.49,405.95v1.73h5.83v-1.62c0-2.24-1.16-3.32-2.93-3.32C283.65,402.74,282.49,403.86,282.49,405.95
		 M292.14,406.49v2.51c0,1.12-0.39,1.62-1.58,1.62h-8.07v1.93c0,2.35,1.08,3.32,3.67,3.32c1.2,0,2.7-0.19,3.97-0.46
		c0.7-0.16,1.08,0.19,1.12,0.89l0.08,1.35c0.04,0.62-0.35,0.96-0.96,1.12c-1.55,0.35-3.28,0.5-4.56,0.5c-5.13,0-7.1-2.24-7.1-7.06
		v-5.71c0-4.48,2.12-6.98,6.67-6.98C289.78,399.5,292.14,401.93,292.14,406.49"/>
	<path class="st0" d="M310.04,400.06c0.77,0,1.08,0.46,0.85,1.16l-5.13,16.82c-0.19,0.58-0.54,0.85-1.16,0.85h-2.97
		c-0.61,0-1-0.27-1.16-0.85l-5.09-16.82c-0.27-0.69,0.08-1.16,0.85-1.16h1.89c0.62,0,1,0.31,1.16,0.89l3.86,15.13l3.86-15.13
		c0.15-0.58,0.54-0.89,1.12-0.89H310.04z"/>
	<path class="st0" d="M331.39,400.02c0.62,0.15,0.93,0.5,0.93,1.12v1.23c-0.04,0.73-0.46,1.08-1.16,0.89
		c-1.01-0.23-2.09-0.38-2.89-0.38c-2.09,0-2.93,0.73-2.93,1.93v0.27c0,0.85,0.39,1.23,1.47,1.73l3.59,1.66
		c2.32,1.08,3.32,2.62,3.32,4.63v0.81c0,3.55-1.93,5.44-6.52,5.44c-1.27,0-2.74-0.23-4.36-0.69c-0.62-0.16-0.89-0.54-0.85-1.12
		l0.04-1.43c0.04-0.77,0.5-1.08,1.2-0.85c1.35,0.42,2.78,0.69,3.9,0.69c2.16,0,2.86-0.58,2.86-1.93v-0.31
		c0-1.04-0.39-1.62-1.39-2.09l-3.59-1.54c-2.36-1.08-3.43-2.54-3.43-4.51v-0.54c0-3.59,2.04-5.44,6.56-5.44
		C329.16,399.6,330.2,399.75,331.39,400.02"/>
	<path class="st0" d="M340.28,400.06c0.66,0,1.01,0.39,1.01,1v16.82c0,0.62-0.35,1-1.01,1h-1.77c-0.65,0-1-0.39-1-1v-16.82
		c0-0.62,0.35-1,1-1H340.28z"/>
	<path class="st0" d="M349.54,406.43v6.1c0,2.35,1.16,3.59,3.09,3.59c1.97,0,3.13-1.23,3.13-3.59v-6.14c0-2.35-1.16-3.55-3.13-3.55
		C350.7,402.84,349.54,404.07,349.54,406.43 M359.54,406.66v5.63c0,4.44-2.16,7.06-6.91,7.06c-4.71,0-6.87-2.62-6.87-7.06v-5.63
		c0-4.44,2.16-7.06,6.87-7.06C357.37,399.6,359.54,402.22,359.54,406.66"/>
	<path class="st0" d="M377.57,406.08v11.81c0,0.62-0.35,1-1.01,1h-1.77c-0.65,0-1.04-0.39-1.04-1v-11.35c0-2.47-0.85-3.39-2.16-3.39
		c-1.31,0-2.74,1.04-3.78,2.78v11.96c0,0.62-0.35,1-1.01,1h-1.77c-0.65,0-1-0.39-1-1v-16.82c0-0.62,0.35-1,1-1h1.51
		c0.66,0,1.04,0.39,1.04,1v1.74c1.35-2.08,3.05-3.2,5.01-3.2C375.75,399.6,377.57,401.84,377.57,406.08"/>
</g>
</svg>
