<?xml version="1.0" encoding="utf-8"?>
<!-- Generator: Adobe Illustrator 24.3.0, SVG Export Plug-In . SVG Version: 6.00 Build 0)  -->
<svg version="1.1" id="Layer_1" xmlns="http://www.w3.org/2000/svg" xmlns:xlink="http://www.w3.org/1999/xlink" x="0px" y="0px"
	 viewBox="0 0 595.28 841.89" style="enable-background:new 0 0 595.28 841.89;" xml:space="preserve">
<style type="text/css">
	.st0{fill:none;}
	.st1{fill:#FFFFFF;stroke:#000000;stroke-width:0.5;stroke-linecap:round;stroke-linejoin:round;stroke-miterlimit:10;}
</style>
<path d="M343.2,378.63c0.64,0,0.99,0.38,0.99,0.99v16.53c0,0.61-0.34,0.98-0.99,0.98h-1.74c-0.64,0-0.98-0.38-0.98-0.98v-16.53
	c0-0.61,0.34-0.99,0.98-0.99H343.2z"/>
<path d="M279.11,378.54c0.68,0,1.06,0.42,0.87,1.1l-3.79,16.53c-0.11,0.57-0.49,0.87-1.06,0.87h-2.73c-0.61,0-0.98-0.3-1.1-0.87
	l-3.22-14.18l-3.3,14.18c-0.11,0.57-0.49,0.87-1.1,0.87h-2.73c-0.57,0-0.95-0.3-1.06-0.87l-3.75-16.53c-0.19-0.68,0.19-1.1,0.87-1.1
	h1.9c0.6,0,0.98,0.3,1.1,0.91l2.54,14.1l3.07-14.14c0.11-0.57,0.45-0.87,1.06-0.87h2.77c0.61,0,0.95,0.3,1.06,0.87l3.03,14.14
	l2.58-14.1c0.11-0.61,0.49-0.91,1.1-0.91H279.11z"/>
<path d="M285.98,378.54c0.64,0,0.98,0.38,0.98,0.99v16.53c0,0.61-0.34,0.99-0.98,0.99h-1.74c-0.64,0-0.99-0.38-0.99-0.99v-16.53
	c0-0.61,0.34-0.99,0.99-0.99H285.98z"/>
<path d="M300.35,378.5c0.61,0.15,0.91,0.49,0.91,1.1v1.21c-0.04,0.72-0.46,1.06-1.14,0.87c-0.99-0.23-2.05-0.38-2.84-0.38
	c-2.05,0-2.88,0.72-2.88,1.9v0.27c0,0.83,0.38,1.21,1.44,1.7l3.53,1.63c2.27,1.06,3.26,2.58,3.26,4.55v0.79
	c0,3.49-1.89,5.35-6.41,5.35c-1.25,0-2.69-0.23-4.28-0.68c-0.61-0.15-0.87-0.53-0.83-1.1l0.04-1.4c0.04-0.76,0.49-1.06,1.18-0.83
	c1.33,0.42,2.73,0.68,3.83,0.68c2.12,0,2.8-0.57,2.8-1.89v-0.3c0-1.02-0.38-1.59-1.36-2.05l-3.52-1.52
	c-2.31-1.06-3.37-2.5-3.37-4.43v-0.53c0-3.52,2.01-5.34,6.44-5.34C298.15,378.08,299.17,378.23,300.35,378.5"/>
<path d="M309.53,384.41v1.7h5.73v-1.59c0-2.2-1.14-3.26-2.88-3.26C310.67,381.27,309.53,382.36,309.53,384.41 M319.01,384.94v2.46
	c0,1.1-0.38,1.59-1.56,1.59h-7.92v1.89c0,2.31,1.06,3.26,3.6,3.26c1.18,0,2.65-0.19,3.9-0.45c0.68-0.15,1.06,0.19,1.1,0.87
	l0.08,1.33c0.04,0.61-0.34,0.95-0.95,1.1c-1.52,0.34-3.22,0.49-4.48,0.49c-5.04,0-6.97-2.2-6.97-6.94v-5.61
	c0-4.4,2.08-6.86,6.56-6.86C316.69,378.08,319.01,380.47,319.01,384.94"/>
<path d="M336.6,378.63c0.76,0,1.06,0.45,0.84,1.14l-5.04,16.53c-0.19,0.57-0.53,0.83-1.14,0.83h-2.92c-0.6,0-0.98-0.26-1.14-0.83
	l-5-16.53c-0.27-0.68,0.07-1.14,0.83-1.14h1.86c0.61,0,0.98,0.3,1.14,0.87l3.79,14.86l3.79-14.86c0.15-0.57,0.53-0.87,1.1-0.87
	H336.6z"/>
<path d="M357.57,378.59c0.61,0.15,0.91,0.49,0.91,1.1v1.21c-0.04,0.72-0.45,1.06-1.14,0.87c-0.99-0.22-2.05-0.38-2.84-0.38
	c-2.05,0-2.88,0.72-2.88,1.89v0.27c0,0.83,0.38,1.21,1.44,1.7l3.52,1.63c2.27,1.06,3.26,2.58,3.26,4.55v0.8
	c0,3.49-1.89,5.35-6.4,5.35c-1.25,0-2.69-0.23-4.28-0.68c-0.61-0.15-0.87-0.53-0.83-1.1l0.04-1.4c0.04-0.76,0.49-1.06,1.17-0.83
	c1.33,0.42,2.73,0.68,3.83,0.68c2.12,0,2.81-0.57,2.81-1.9v-0.3c0-1.02-0.38-1.59-1.36-2.05l-3.52-1.51
	c-2.32-1.06-3.37-2.5-3.37-4.43v-0.53c0-3.52,2.01-5.34,6.44-5.34C355.37,378.18,356.4,378.33,357.57,378.59"/>
<path d="M366.3,378.63c0.64,0,0.99,0.38,0.99,0.99v16.53c0,0.61-0.34,0.98-0.99,0.98h-1.74c-0.64,0-0.98-0.38-0.98-0.98v-16.53
	c0-0.61,0.34-0.99,0.98-0.99H366.3z"/>
<path d="M375.4,384.88v5.99c0,2.31,1.14,3.52,3.03,3.52c1.93,0,3.07-1.21,3.07-3.52v-6.03c0-2.31-1.14-3.49-3.07-3.49
	C376.54,381.36,375.4,382.57,375.4,384.88 M385.22,385.11v5.53c0,4.36-2.12,6.94-6.78,6.94c-4.63,0-6.75-2.58-6.75-6.94v-5.53
	c0-4.36,2.12-6.93,6.75-6.93C383.09,378.18,385.22,380.75,385.22,385.11"/>
<path d="M402.93,384.54v11.6c0,0.61-0.34,0.99-0.99,0.99h-1.74c-0.64,0-1.02-0.38-1.02-0.99V385c0-2.43-0.83-3.33-2.12-3.33
	c-1.29,0-2.69,1.02-3.71,2.73v11.75c0,0.61-0.34,0.99-0.99,0.99h-1.74c-0.64,0-0.98-0.38-0.98-0.99v-16.53
	c0-0.61,0.34-0.98,0.98-0.98h1.48c0.64,0,1.02,0.38,1.02,0.98v1.71c1.33-2.05,2.99-3.15,4.93-3.15
	C401.14,378.18,402.93,380.37,402.93,384.54"/>
<rect x="207.54" y="355.93" class="st0" width="195.39" height="35.43"/>
<path class="st1" d="M246.55,387.39l-0.07-8.05c0,0-17.76-31.17-38.97,0.37c0,0,18.33,31.54,33.72,7.12l-3.05-4.28
	c0,0-11.09,19.49-24.48-2.66C213.7,379.9,226.47,355.13,246.55,387.39z"/>
<path d="M207.25,379.82l0.1,7.98c0,0,17.72,31.61,39.29-0.21c0,0-17.35-31.76-33.07-7.74l2.73,4.01c0,0,11.19-19.07,24.79,3.08
	C241.09,386.94,228.26,411.74,207.25,379.82"/>
<rect x="255.65" y="323.38" class="st0" width="149.48" height="74.52"/>
</svg>
