<?xml version="1.0" encoding="utf-8"?>
<!-- Generator: Adobe Illustrator 24.3.0, SVG Export Plug-In . SVG Version: 6.00 Build 0)  -->
<svg version="1.1" id="Layer_1" xmlns="http://www.w3.org/2000/svg" xmlns:xlink="http://www.w3.org/1999/xlink" x="0px" y="0px"
	 viewBox="0 0 595.28 841.89" style="enable-background:new 0 0 595.28 841.89;" xml:space="preserve">
<style type="text/css">
	.st0{clip-path:url(#SVGID_2_);fill:#53C8EC;}
	.st1{clip-path:url(#SVGID_2_);fill:#20428B;}
	.st2{clip-path:url(#SVGID_2_);}
</style>
<g>
	<defs>
		<rect id="SVGID_1_" x="200.08" y="402.97" width="195.39" height="35.43"/>
	</defs>
	<clipPath id="SVGID_2_">
		<use xlink:href="#SVGID_1_"  style="overflow:visible;"/>
	</clipPath>
	<path class="st0" d="M239.07,424.37l-0.07-7.9c0,0-17.72-30.62-38.89,0.36c0,0,17.9,31.07,33.25,7.09l-2.82-4.02
		c0,0-10.9,18.88-24.26-2.88C206.29,417.02,219.03,392.69,239.07,424.37"/>
	<path class="st1" d="M200.08,416.94l0.1,7.84c0,0,17.69,30.9,38.88-0.36c0,0-17.33-31.04-32.78-7.44l2.68,3.94
		c0,0,10.99-18.73,24.35,3.03C233.32,423.94,220.72,448.29,200.08,416.94"/>
	<path class="st2" d="M335.75,415.66c0.64,0,0.99,0.38,0.99,0.98v16.53c0,0.6-0.34,0.98-0.99,0.98h-1.74
		c-0.64,0-0.98-0.38-0.98-0.98v-16.53c0-0.61,0.34-0.98,0.98-0.98H335.75z"/>
	<path class="st2" d="M271.65,415.57c0.68,0,1.06,0.42,0.87,1.1l-3.79,16.53c-0.11,0.57-0.49,0.87-1.06,0.87h-2.73
		c-0.61,0-0.98-0.3-1.1-0.87l-3.22-14.18l-3.3,14.18c-0.11,0.57-0.49,0.87-1.1,0.87h-2.73c-0.57,0-0.95-0.3-1.06-0.87l-3.75-16.53
		c-0.19-0.68,0.19-1.1,0.87-1.1h1.9c0.6,0,0.99,0.3,1.1,0.91l2.54,14.1l3.07-14.14c0.11-0.57,0.45-0.87,1.06-0.87h2.77
		c0.61,0,0.95,0.3,1.06,0.87l3.03,14.14l2.58-14.1c0.11-0.61,0.49-0.91,1.1-0.91H271.65z"/>
	<path class="st2" d="M278.53,415.57c0.64,0,0.98,0.38,0.98,0.99v16.53c0,0.61-0.34,0.99-0.98,0.99h-1.74
		c-0.65,0-0.99-0.38-0.99-0.99v-16.53c0-0.61,0.34-0.99,0.99-0.99H278.53z"/>
	<path class="st2" d="M292.9,415.53c0.6,0.15,0.91,0.49,0.91,1.1v1.21c-0.04,0.72-0.46,1.06-1.14,0.87
		c-0.98-0.23-2.05-0.38-2.84-0.38c-2.05,0-2.88,0.72-2.88,1.89v0.27c0,0.83,0.38,1.21,1.44,1.71l3.53,1.63
		c2.27,1.06,3.26,2.58,3.26,4.55v0.8c0,3.49-1.9,5.35-6.41,5.35c-1.25,0-2.69-0.23-4.28-0.68c-0.61-0.15-0.87-0.53-0.83-1.1
		l0.04-1.4c0.04-0.76,0.49-1.06,1.18-0.83c1.33,0.42,2.73,0.68,3.83,0.68c2.12,0,2.8-0.57,2.8-1.9v-0.3c0-1.02-0.38-1.59-1.36-2.05
		l-3.53-1.52c-2.31-1.06-3.37-2.5-3.37-4.43v-0.53c0-3.52,2.01-5.34,6.44-5.34C290.7,415.12,291.72,415.27,292.9,415.53"/>
	<path class="st2" d="M302.08,421.45v1.7h5.73v-1.59c0-2.2-1.14-3.26-2.88-3.26C303.22,418.3,302.08,419.4,302.08,421.45
		 M311.55,421.98v2.46c0,1.1-0.38,1.59-1.55,1.59h-7.92v1.89c0,2.31,1.06,3.26,3.6,3.26c1.18,0,2.65-0.19,3.9-0.45
		c0.68-0.15,1.06,0.19,1.1,0.87l0.08,1.33c0.04,0.61-0.34,0.95-0.95,1.1c-1.52,0.34-3.22,0.49-4.48,0.49c-5.04,0-6.97-2.2-6.97-6.94
		v-5.61c0-4.4,2.08-6.86,6.56-6.86C309.24,415.12,311.55,417.5,311.55,421.98"/>
	<path class="st2" d="M329.15,415.66c0.76,0,1.06,0.45,0.84,1.14l-5.04,16.53c-0.19,0.57-0.53,0.83-1.14,0.83h-2.92
		c-0.61,0-0.99-0.27-1.14-0.83l-5-16.53c-0.26-0.68,0.07-1.14,0.83-1.14h1.86c0.6,0,0.98,0.3,1.13,0.87l3.79,14.86l3.79-14.86
		c0.15-0.57,0.53-0.87,1.1-0.87H329.15z"/>
	<path class="st2" d="M350.12,415.63c0.61,0.15,0.91,0.49,0.91,1.1v1.21c-0.04,0.72-0.45,1.06-1.14,0.87
		c-0.99-0.23-2.05-0.38-2.84-0.38c-2.05,0-2.88,0.72-2.88,1.9v0.27c0,0.83,0.38,1.21,1.44,1.7l3.52,1.63
		c2.27,1.06,3.26,2.58,3.26,4.55v0.8c0,3.49-1.9,5.35-6.4,5.35c-1.25,0-2.69-0.23-4.28-0.68c-0.61-0.15-0.87-0.53-0.83-1.1l0.04-1.4
		c0.04-0.76,0.49-1.06,1.17-0.83c1.33,0.42,2.73,0.68,3.83,0.68c2.12,0,2.81-0.57,2.81-1.89v-0.3c0-1.02-0.38-1.59-1.36-2.05
		l-3.52-1.51c-2.32-1.06-3.37-2.5-3.37-4.43v-0.53c0-3.52,2.01-5.34,6.44-5.34C347.92,415.21,348.95,415.36,350.12,415.63"/>
	<path class="st2" d="M358.84,415.66c0.64,0,0.99,0.38,0.99,0.98v16.53c0,0.6-0.34,0.98-0.99,0.98h-1.74
		c-0.64,0-0.98-0.38-0.98-0.98v-16.53c0-0.61,0.34-0.98,0.98-0.98H358.84z"/>
	<path class="st2" d="M367.95,421.92v5.99c0,2.31,1.14,3.52,3.03,3.52c1.93,0,3.07-1.21,3.07-3.52v-6.03c0-2.31-1.14-3.49-3.07-3.49
		C369.08,418.39,367.95,419.61,367.95,421.92 M377.76,422.15v5.53c0,4.36-2.12,6.94-6.78,6.94c-4.63,0-6.75-2.58-6.75-6.94v-5.53
		c0-4.36,2.12-6.93,6.75-6.93C375.64,415.21,377.76,417.79,377.76,422.15"/>
	<path class="st2" d="M395.48,421.58v11.6c0,0.61-0.34,0.98-0.99,0.98h-1.74c-0.64,0-1.02-0.38-1.02-0.98v-11.14
		c0-2.43-0.83-3.33-2.12-3.33c-1.29,0-2.69,1.02-3.71,2.73v11.75c0,0.61-0.34,0.98-0.99,0.98h-1.74c-0.64,0-0.98-0.38-0.98-0.98
		v-16.53c0-0.6,0.34-0.98,0.98-0.98h1.48c0.65,0,1.02,0.38,1.02,0.98v1.71c1.33-2.05,2.99-3.14,4.93-3.14
		C393.69,415.21,395.48,417.41,395.48,421.58"/>
</g>
</svg>
